<svg id="svg" xmlns="http://www.w3.org/2000/svg" xmlns:xlink="http://www.w3.org/1999/xlink" width="400" height="118.94882434301522" viewBox="0, 0, 400,118.94882434301522">
<symbol id="logo" viewBox="0, 0, 400,118.94882434301522">
<path id="logo-path" d="M156.399 15.170 C 156.115 15.454,155.882 35.980,155.882 60.784 L 155.882 105.882 160.995 105.882 L 166.107 105.882 166.873 103.125 C 167.294 101.608,167.641 99.954,167.643 99.449 C 167.649 98.118,167.991 98.250,172.021 101.146 C 198.779 120.370,234.328 93.180,224.350 61.121 C 217.722 39.826,191.572 30.461,172.993 42.729 L 169.883 44.783 169.684 29.928 L 169.485 15.074 163.200 14.863 C 159.744 14.748,156.683 14.885,156.399 15.170 M290.441 21.691 L 290.441 28.676 297.426 28.676 L 304.412 28.676 304.412 21.691 L 304.412 14.706 297.426 14.706 L 290.441 14.706 290.441 21.691 M28.125 35.645 C 14.567 50.119,14.349 50.735,22.794 50.735 L 28.676 50.735 28.676 68.617 C 28.676 88.613,29.194 91.808,33.291 97.135 C 37.850 103.062,47.052 106.293,57.797 105.738 L 62.132 105.515 62.344 99.542 L 62.556 93.570 56.462 93.238 C 43.430 92.528,42.653 91.120,42.650 68.199 L 42.647 50.735 52.206 50.735 L 61.765 50.735 61.765 44.874 L 61.765 39.013 52.022 38.808 L 42.279 38.603 42.070 31.066 C 41.792 21.060,41.786 21.062,28.125 35.645 M243.106 35.578 C 229.245 50.114,229.015 50.735,237.500 50.735 L 243.382 50.735 243.382 68.305 C 243.382 99.067,248.593 105.850,272.243 105.877 L 277.206 105.882 277.206 99.725 L 277.206 93.567 271.077 93.245 C 258.319 92.575,257.353 90.788,257.353 67.842 L 257.353 50.735 266.912 50.735 L 276.471 50.735 276.471 44.874 L 276.471 39.013 266.728 38.808 L 256.985 38.603 256.776 31.066 C 256.503 21.259,256.877 21.135,243.106 35.578 M95.671 38.662 C 62.857 47.487,61.241 94.319,93.376 105.145 C 114.448 112.243,136.494 100.223,140.426 79.492 C 145.445 53.029,121.950 31.595,95.671 38.662 M344.672 38.253 C 312.184 46.434,309.989 93.346,341.544 105.104 C 359.970 111.969,380.919 101.768,386.376 83.272 C 387.226 80.390,373.291 80.741,371.773 83.640 C 363.903 98.672,339.817 96.692,334.321 80.561 C 327.884 61.671,344.803 44.663,362.471 52.263 C 365.921 53.748,372.794 60.127,372.794 61.844 C 372.794 62.205,375.923 62.500,379.747 62.500 L 386.699 62.500 385.701 59.671 C 379.924 43.297,361.935 33.906,344.672 38.253 M290.441 72.454 L 290.441 105.938 297.243 105.726 L 304.044 105.515 304.235 72.243 L 304.427 38.971 297.434 38.971 L 290.441 38.971 290.441 72.454 M114.911 52.398 C 122.753 55.696,127.770 64.598,127.024 73.889 C 124.784 101.794,84.273 100.410,84.216 72.426 C 84.181 55.746,99.346 45.852,114.911 52.398 M199.224 52.315 C 208.514 56.310,213.222 65.436,211.609 76.321 C 208.521 97.153,179.068 100.476,170.379 80.972 C 162.401 63.064,181.076 44.511,199.224 52.315 " stroke="none" fill="#5d5c61" fill-rule="evenodd"></path>
</symbol>
</svg>