<svg id="svg" xmlns="http://www.w3.org/2000/svg" xmlns:xlink="http://www.w3.org/1999/xlink" width="400" height="118.94882434301522" viewBox="0, 0, 400,118.94882434301522">
<symbol id="logo" viewBox="0, 0, 400,118.94882434301522">
<path id="logo-path" d="M175.672 12.147 C 175.492 12.438,174.967 12.531,174.505 12.354 C 174.031 12.172,173.070 12.590,172.302 13.311 C 171.274 14.277,170.783 14.435,170.302 13.954 C 169.821 13.473,169.512 13.525,169.042 14.168 C 168.519 14.884,168.179 14.910,166.900 14.327 C 163.967 12.991,163.369 14.509,164.049 21.577 C 164.284 24.020,164.174 28.229,163.780 31.812 C 162.943 39.435,162.501 103.354,163.265 106.335 C 164.268 110.245,169.802 112.448,175.037 111.021 C 176.595 110.596,178.951 110.227,180.272 110.200 C 181.926 110.167,183.237 109.722,184.484 108.771 L 186.294 107.390 187.982 109.296 C 189.108 110.568,190.193 111.223,191.239 111.263 C 197.068 111.487,205.845 111.162,207.123 110.677 C 207.961 110.358,209.316 110.094,210.133 110.092 C 214.949 110.075,220.130 104.576,223.535 95.868 L 225.814 90.039 225.758 82.014 C 225.726 77.600,225.575 73.785,225.421 73.536 C 225.267 73.287,225.129 70.519,225.115 67.385 C 225.066 56.599,222.092 50.331,215.294 46.684 C 213.360 45.647,210.657 43.992,209.286 43.008 C 206.547 41.039,201.645 40.616,193.856 41.677 L 190.478 42.137 190.178 33.378 C 189.825 23.029,188.800 19.511,185.092 15.914 C 181.494 12.425,176.688 10.503,175.672 12.147 M314.507 12.121 C 314.212 12.411,312.351 12.787,310.373 12.957 C 308.396 13.127,305.966 13.340,304.974 13.431 C 301.808 13.719,300.667 15.476,300.843 19.794 C 301.045 24.783,301.262 25.346,302.859 25.040 C 304.030 24.816,304.215 25.043,304.568 27.128 C 304.977 29.553,305.922 29.254,305.939 26.694 C 305.961 23.499,307.385 25.806,307.732 29.599 C 307.870 31.105,308.088 31.275,310.090 31.438 C 311.303 31.537,312.548 31.807,312.856 32.039 C 314.269 33.103,319.812 34.913,321.970 35.017 C 328.143 35.313,328.350 18.506,322.207 15.808 C 321.565 15.526,320.569 14.593,319.994 13.735 C 319.385 12.826,318.448 12.174,317.749 12.173 C 317.089 12.172,316.211 12.042,315.797 11.883 C 315.384 11.724,314.803 11.831,314.507 12.121 M60.028 14.417 C 37.719 15.108,28.971 16.453,31.756 18.764 C 32.305 19.220,32.397 19.931,32.086 21.313 C 31.848 22.366,31.859 23.102,32.109 22.947 C 32.360 22.792,32.711 22.900,32.888 23.188 C 33.066 23.475,32.710 23.869,32.097 24.064 C 30.598 24.540,30.619 26.876,32.129 27.684 C 33.101 28.204,33.323 28.122,33.577 27.151 C 33.747 26.502,34.330 26.003,34.919 26.003 C 36.162 26.003,36.308 27.011,35.131 27.462 C 34.174 27.830,34.000 29.322,34.915 29.322 C 35.265 29.322,35.407 29.856,35.247 30.567 C 35.092 31.252,35.394 32.554,35.917 33.461 C 36.776 34.949,36.789 35.274,36.046 36.781 C 35.592 37.699,35.053 38.820,34.846 39.270 C 34.341 40.372,37.865 43.153,39.772 43.157 C 41.409 43.160,44.719 44.025,45.833 44.741 C 46.450 45.138,46.375 47.583,45.385 59.236 C 43.412 82.479,43.784 99.140,46.398 104.528 C 48.741 109.359,50.474 109.763,50.651 105.521 C 50.796 102.066,50.851 101.798,51.416 101.798 C 51.700 101.798,52.036 102.483,52.163 103.320 C 52.348 104.543,52.409 104.435,52.476 102.766 C 52.550 100.920,53.665 99.639,53.665 101.401 C 53.665 101.791,54.771 102.436,56.123 102.835 C 58.147 103.433,58.611 103.821,58.751 105.031 C 58.888 106.211,59.211 106.501,60.393 106.501 C 61.203 106.501,62.037 106.670,62.246 106.878 C 62.455 107.085,62.975 107.120,63.401 106.957 C 63.828 106.793,64.177 106.902,64.177 107.199 C 64.177 109.685,73.502 107.148,73.627 104.629 C 73.651 104.137,73.739 95.021,73.823 84.371 C 73.913 72.869,74.238 63.434,74.624 61.134 C 74.981 59.004,75.416 54.149,75.589 50.346 C 75.961 42.188,75.391 43.227,79.713 42.829 C 88.735 41.997,91.008 40.002,91.012 32.918 C 91.013 30.484,91.177 28.242,91.376 27.936 C 92.125 26.784,91.116 24.194,89.572 23.308 C 88.683 22.797,87.945 21.851,87.852 21.101 C 87.734 20.144,86.909 19.395,84.801 18.332 C 81.378 16.605,81.254 16.285,83.817 15.804 C 85.634 15.463,86.577 14.386,85.062 14.383 C 84.682 14.382,81.757 14.301,78.562 14.202 C 75.367 14.103,67.026 14.200,60.028 14.417 M261.411 14.417 C 239.102 15.108,230.354 16.453,233.139 18.764 C 233.688 19.220,233.780 19.931,233.469 21.313 C 233.231 22.366,233.242 23.102,233.493 22.947 C 233.743 22.792,234.094 22.900,234.271 23.188 C 234.449 23.475,234.093 23.869,233.480 24.064 C 231.981 24.540,232.002 26.876,233.513 27.684 C 234.484 28.204,234.706 28.122,234.960 27.151 C 235.130 26.502,235.713 26.003,236.302 26.003 C 237.545 26.003,237.691 27.011,236.515 27.462 C 235.557 27.830,235.383 29.322,236.298 29.322 C 236.648 29.322,236.791 29.856,236.630 30.567 C 236.475 31.252,236.777 32.554,237.300 33.461 C 238.160 34.949,238.172 35.274,237.429 36.781 C 236.975 37.699,236.436 38.820,236.229 39.270 C 235.724 40.372,239.248 43.153,241.155 43.157 C 242.792 43.160,246.102 44.025,247.216 44.741 C 247.833 45.138,247.758 47.583,246.768 59.236 C 244.795 82.479,245.167 99.140,247.781 104.528 C 250.124 109.359,251.857 109.763,252.035 105.521 C 252.179 102.066,252.234 101.798,252.799 101.798 C 253.083 101.798,253.419 102.483,253.546 103.320 C 253.731 104.543,253.792 104.435,253.859 102.766 C 253.933 100.920,255.048 99.639,255.048 101.401 C 255.048 101.791,256.154 102.436,257.506 102.835 C 259.530 103.433,259.994 103.821,260.134 105.031 C 260.271 106.211,260.595 106.501,261.777 106.501 C 262.586 106.501,263.420 106.670,263.629 106.878 C 263.838 107.085,264.358 107.120,264.784 106.957 C 265.211 106.793,265.560 106.902,265.560 107.199 C 265.560 109.685,274.885 107.148,275.010 104.629 C 275.034 104.137,275.122 95.021,275.206 84.371 C 275.296 72.869,275.621 63.434,276.007 61.134 C 276.364 59.004,276.799 54.149,276.972 50.346 C 277.345 42.188,276.774 43.227,281.096 42.829 C 290.118 41.997,292.392 40.002,292.395 32.918 C 292.396 30.484,292.560 28.242,292.759 27.936 C 293.508 26.784,292.499 24.194,290.955 23.308 C 290.066 22.797,289.328 21.851,289.235 21.101 C 289.117 20.144,288.292 19.395,286.184 18.332 C 282.761 16.605,282.637 16.285,285.201 15.804 C 287.017 15.463,287.961 14.386,286.445 14.383 C 286.065 14.382,283.140 14.301,279.945 14.202 C 276.750 14.103,268.409 14.200,261.411 14.417 M30.619 29.595 C 31.309 31.082,31.817 31.316,32.380 30.405 C 32.815 29.700,31.669 28.216,30.690 28.216 C 30.131 28.216,30.116 28.509,30.619 29.595 M232.002 29.595 C 232.692 31.082,233.200 31.316,233.763 30.405 C 234.199 29.700,233.052 28.216,232.073 28.216 C 231.514 28.216,231.499 28.509,232.002 29.595 M31.385 34.636 C 31.164 34.858,30.982 35.421,30.982 35.888 C 30.982 36.510,31.146 36.572,31.598 36.120 C 31.936 35.782,32.118 35.219,32.001 34.869 C 31.884 34.519,31.607 34.414,31.385 34.636 M232.769 34.636 C 232.547 34.858,232.365 35.421,232.365 35.888 C 232.365 36.510,232.529 36.572,232.981 36.120 C 233.319 35.782,233.501 35.219,233.384 34.869 C 233.267 34.519,232.990 34.414,232.769 34.636 M360.842 37.089 C 351.655 38.949,341.327 48.398,337.093 58.816 C 333.021 68.837,332.475 85.969,335.828 98.487 C 337.835 105.980,349.701 113.749,357.343 112.572 C 358.743 112.357,361.508 112.138,363.485 112.087 C 367.526 111.983,372.615 109.985,375.242 107.472 C 376.079 106.672,376.763 106.313,376.763 106.674 C 376.763 108.409,381.429 104.674,381.820 102.626 C 382.002 101.675,382.542 101.499,385.712 101.359 C 389.899 101.174,389.959 101.123,391.658 96.348 L 392.908 92.834 391.542 91.369 C 390.791 90.563,389.890 89.346,389.539 88.664 C 388.573 86.785,385.992 85.638,384.235 86.306 C 383.442 86.608,381.747 86.985,380.470 87.145 C 373.511 88.017,372.898 88.376,371.436 92.442 C 368.957 99.337,362.647 94.792,361.681 85.415 C 360.613 75.056,365.427 56.085,367.105 64.039 C 367.653 66.639,368.965 69.156,369.771 69.156 C 370.195 69.156,370.830 69.503,371.181 69.926 C 372.494 71.508,380.025 70.961,383.679 69.019 C 387.624 66.921,387.792 66.749,387.855 64.730 L 387.899 63.347 388.480 64.730 L 389.061 66.113 389.602 64.579 C 389.934 63.635,390.484 63.103,391.031 63.196 C 395.070 63.883,389.736 45.523,385.384 43.761 C 385.082 43.639,383.704 42.489,382.321 41.206 C 378.097 37.287,368.732 35.492,360.842 37.089 M119.502 38.952 C 113.174 41.140,112.039 41.829,108.827 45.430 C 107.094 47.373,105.675 49.146,105.673 49.369 C 105.672 49.593,104.912 51.009,103.985 52.515 C 100.576 58.056,98.539 64.718,97.037 75.242 C 95.903 83.185,97.148 94.577,99.516 97.925 C 100.054 98.686,101.185 100.586,102.029 102.148 C 103.528 104.924,106.240 107.007,106.670 105.715 C 107.000 104.725,109.304 105.042,110.373 106.224 C 110.930 106.839,112.077 107.331,112.956 107.331 C 113.826 107.331,115.014 107.628,115.596 107.991 C 116.416 108.503,116.980 108.503,118.104 107.991 C 120.020 107.118,120.609 107.158,120.609 108.160 C 120.609 109.924,123.207 108.986,126.155 106.159 C 129.046 103.387,129.164 103.334,131.769 103.643 C 134.562 103.973,139.972 101.804,139.972 100.353 C 139.972 99.592,141.541 98.203,141.944 98.606 C 142.100 98.763,141.084 100.230,139.685 101.866 C 137.616 104.286,137.321 104.878,138.105 105.039 C 138.636 105.149,139.339 104.900,139.668 104.486 C 141.462 102.235,145.258 100.355,144.612 102.039 C 144.430 102.515,144.556 102.905,144.892 102.905 C 145.229 102.905,145.505 102.694,145.505 102.438 C 145.505 102.181,146.687 100.735,148.133 99.225 C 152.514 94.647,155.482 86.306,155.713 77.919 C 155.856 72.729,155.799 72.411,152.737 61.262 C 147.771 43.180,134.003 33.938,119.502 38.952 M312.586 39.772 C 312.130 40.032,310.014 40.543,307.884 40.909 C 301.165 42.064,300.199 43.020,300.329 48.390 C 300.374 50.227,300.027 55.961,299.560 61.134 C 299.092 66.307,298.781 71.784,298.869 73.306 C 299.087 77.077,299.017 87.926,298.722 96.099 C 298.492 102.478,299.269 106.282,300.254 103.596 C 300.736 102.280,301.992 102.913,302.609 104.784 C 305.259 112.814,321.753 114.467,325.296 107.058 C 326.514 104.513,326.019 85.398,324.512 76.706 C 323.948 73.454,323.896 71.366,324.306 68.407 C 324.998 63.424,324.680 49.337,323.843 47.856 C 323.499 47.248,322.936 46.040,322.591 45.173 C 322.247 44.306,321.504 43.476,320.940 43.328 C 320.377 43.181,319.596 42.463,319.205 41.733 C 318.815 41.003,318.099 40.296,317.615 40.161 C 315.205 39.491,313.335 39.346,312.586 39.772 M197.220 58.506 C 197.766 59.891,198.767 82.761,198.418 85.854 C 197.869 90.705,195.461 94.014,191.831 94.907 L 190.302 95.283 190.484 77.177 L 190.666 59.070 192.014 58.324 C 193.982 57.233,196.757 57.330,197.220 58.506 M130.311 69.501 C 131.670 87.561,127.993 101.225,124.119 92.511 C 122.042 87.838,123.043 62.729,125.375 61.015 C 127.637 59.352,129.832 63.126,130.311 69.501 " stroke="none" fill="#5d5c61" fill-rule="evenodd"></path>
</symbol>
</svg>